<?xml version="1.0" standalone="no"?>
<!DOCTYPE svg PUBLIC "-//W3C//DTD SVG 1.1//EN" "http://www.w3.org/Graphics/SVG/1.1/DTD/svg11.dtd">
<svg xmlns="http://www.w3.org/2000/svg" id="Layer_1" data-name="Layer 1" viewBox="0 0 235.4 58.12" width="235.39999389648438" height="58.119998931884766"><defs><style>.cls-1{fill:#f6faf7;}.cls-2{fill:#379aa4;}.cls-3{fill:#f6faf8;}.cls-4{fill:#23192a;}.cls-5{fill:#ef7d19;}.cls-6{fill:#b93d57;}.cls-7{fill:#fff;}</style></defs><title>logo_boosttic</title><circle class="cls-1" cx="39.88" cy="21.81" r="11.66"/><circle class="cls-1" cx="67.3" cy="22.59" r="11.66"/><path class="cls-2" d="M74.39,29.83c-3.43,2.13-6.74,4.41-10,6.8a175.37,175.37,0,0,0-16.59,14c-.3-.26-.58-.54-.88-.8-1-.91-2.05-1.8-3.1-2.68a73.44,73.44,0,0,0-6.62-5,76.89,76.89,0,0,0,4,7.25c.73,1.16,1.47,2.31,2.23,3.44s1.53,2.26,2.32,3.36l1.39,1.94,2.43-1.61a173.86,173.86,0,0,0,19-14.74c3-2.67,5.9-5.45,8.68-8.38A85.9,85.9,0,0,0,85.15,24,87.23,87.23,0,0,0,74.39,29.83Z"/><circle class="cls-3" cx="67.64" cy="22.59" r="10.88"/><circle class="cls-4" cx="67.64" cy="22.59" r="6.23"/><circle class="cls-3" cx="40.43" cy="22.59" r="10.88"/><path class="cls-5" d="M0,35.37V4.17c0-.41.06-.67.19-.78A1.43,1.43,0,0,1,1,3.22H10A9.46,9.46,0,0,1,14.77,4.5,9.71,9.71,0,0,1,18.28,8a9.36,9.36,0,0,1,1.3,4.86A8.93,8.93,0,0,1,18,18a10.22,10.22,0,0,1,3.79,3.65,9.62,9.62,0,0,1,.09,9.74,9.61,9.61,0,0,1-8.39,4.81l-12.28.05Q0,36.27,0,35.37ZM10.05,16.93a3.87,3.87,0,0,0,2.85-1.21,4.08,4.08,0,0,0-.05-5.79A4,4,0,0,0,10,8.72H6.5c-.67,0-1,.43-1,1.28v5.74a1.05,1.05,0,0,0,1.19,1.19ZM13,30.72a4.15,4.15,0,0,0,2.94-7.06A4,4,0,0,0,13,22.47H6.69A1.05,1.05,0,0,0,5.5,23.66v5.93a1,1,0,0,0,1.19,1.18Z"/><path class="cls-5" d="M45.15,10.59a13.77,13.77,0,0,1,7,7,12.77,12.77,0,0,1,1,4.95,12.46,12.46,0,0,1-3.81,9.12,13.14,13.14,0,0,1-14.07,2.84,12.63,12.63,0,0,1-4.17-2.84,12.3,12.3,0,0,1-2.83-4.18,12.5,12.5,0,0,1-.94-4.94,12.52,12.52,0,0,1,.94-4.93,13,13,0,0,1,2.83-4.2,12.83,12.83,0,0,1,4.17-2.85,13.45,13.45,0,0,1,9.88,0Zm-8.57,3.19a9.33,9.33,0,0,0-5.8,8.76,9.41,9.41,0,0,0,.68,3.62,9,9,0,0,0,2.08,3.05,8.7,8.7,0,0,0,3,2.07,9.44,9.44,0,0,0,3.64.7A9.61,9.61,0,0,0,49,26.16a9,9,0,0,0,.72-3.62A9.14,9.14,0,0,0,49,18.92a10.12,10.12,0,0,0-2.06-3.06,9.91,9.91,0,0,0-3.08-2.08,9.24,9.24,0,0,0-3.6-.7A9.44,9.44,0,0,0,36.58,13.78Z"/><path class="cls-5" d="M72.34,10.59a13.13,13.13,0,0,1,4.19,2.87,13,13,0,0,1,2.85,4.16,12.76,12.76,0,0,1,1,4.95,12.4,12.4,0,0,1-3.8,9.12,13.14,13.14,0,0,1-14.07,2.84,12.63,12.63,0,0,1-4.17-2.84,12.16,12.16,0,0,1-2.83-4.18,12.5,12.5,0,0,1-.94-4.94,12.52,12.52,0,0,1,.94-4.93,12.82,12.82,0,0,1,2.83-4.2,12.72,12.72,0,0,1,4.17-2.85,13.45,13.45,0,0,1,9.88,0Zm-8.57,3.19a9.62,9.62,0,0,0-3,2.08A9,9,0,0,0,58,22.54a9.23,9.23,0,0,0,.68,3.62,9,9,0,0,0,2.08,3.05,8.7,8.7,0,0,0,3,2.07,9.44,9.44,0,0,0,3.64.7,9.61,9.61,0,0,0,8.74-5.82,9,9,0,0,0,.72-3.62,9.14,9.14,0,0,0-.72-3.62,10.16,10.16,0,0,0-2.07-3.06A9.87,9.87,0,0,0,71,13.78a9.28,9.28,0,0,0-3.6-.7A9.44,9.44,0,0,0,63.77,13.78Z"/><path class="cls-5" d="M89.58,29.78a.41.41,0,0,1,0,.33l-1.13,3.17a.63.63,0,0,1-.34.34.65.65,0,0,1-.52,0,10.39,10.39,0,0,1-2.18-1.19c-.16-.16-.23-.28-.23-.38a2.93,2.93,0,0,1,.42-1.06c.29-.52.68-1.21,1.19-2.07.15-.22.38-.25.66-.09l1.9.76A.61.61,0,0,1,89.58,29.78Zm15.53-9.7a7.48,7.48,0,0,1,2.82,2.56A7.94,7.94,0,0,1,109,27a7.93,7.93,0,0,1-1.45,4.69,9.52,9.52,0,0,1-4.1,3.2,15.22,15.22,0,0,1-6.12,1.16,11.66,11.66,0,0,1-1.94-.19,1,1,0,0,1-.66-.26.69.69,0,0,1-.1-.64l.19-1.37c0-.26.06-.55.1-.88a6.48,6.48,0,0,1,.14-.93.79.79,0,0,1,.9-.75l2,0A6.35,6.35,0,0,0,101.81,30a3.24,3.24,0,0,0,1.5-2.7A4,4,0,0,0,102.5,25a4.94,4.94,0,0,0-1.9-1.28,37.78,37.78,0,0,0-3.74-1.38A57.75,57.75,0,0,1,91,20a8.29,8.29,0,0,1-3.34-2.63,8,8,0,0,1-1.33-4.31,8,8,0,0,1,1.35-4.41,11,11,0,0,1,3.77-3.49A14,14,0,0,1,97,3.46a20.66,20.66,0,0,1,4.46.29,15,15,0,0,1,3.79,1.13A14.88,14.88,0,0,1,108,6.73a1.53,1.53,0,0,1,.38.43c.09.16.13.27.09.33A20.77,20.77,0,0,1,106.86,10l-.57.8a.54.54,0,0,1-.42.15.9.9,0,0,1-.48-.15A15.62,15.62,0,0,0,102,9.29a12.32,12.32,0,0,0-3.32-.47,10,10,0,0,0-3.65.66A5.83,5.83,0,0,0,93,11a2.73,2.73,0,0,0-.73,1.77A3,3,0,0,0,94,15.22a25.58,25.58,0,0,0,2.63,1.33,35.79,35.79,0,0,0,3.34,1.37A42.11,42.11,0,0,1,105.11,20.08Zm1.18-9.32s0,0,0,0Z"/><path class="cls-5" d="M124.76,36.13a.64.64,0,0,1-.16-.43V10a1.09,1.09,0,0,0-.36-.78,1.12,1.12,0,0,0-.83-.35h-8a.68.68,0,0,1-.56-.57V3.7a.46.46,0,0,1,.16-.38.58.58,0,0,1,.4-.14h25a.61.61,0,0,1,.47.19.57.57,0,0,1,.19.42V8.25a.59.59,0,0,1-.19.43.65.65,0,0,1-.47.19h-7.87A1.13,1.13,0,0,0,131.47,10V35.7a.6.6,0,0,1-.17.43.59.59,0,0,1-.45.19h-5.64A.59.59,0,0,1,124.76,36.13Z"/><path class="cls-5" d="M148,6.71a.82.82,0,0,1-.26-.59V.85a.81.81,0,0,1,.28-.59.92.92,0,0,1,.62-.26h1.95a.73.73,0,0,1,.56.26.84.84,0,0,1,.24.59V6.12a.77.77,0,0,1-.28.59.92.92,0,0,1-.62.26h-1.85A.88.88,0,0,1,148,6.71Z"/><path class="cls-6" d="M168,36.13a.64.64,0,0,1-.16-.43V10a1.09,1.09,0,0,0-.36-.78,1.1,1.1,0,0,0-.83-.35h-8a.67.67,0,0,1-.57-.57V3.7a.46.46,0,0,1,.16-.38.59.59,0,0,1,.41-.14h25a.65.65,0,0,1,.48.19.59.59,0,0,1,.18.42V8.25a.61.61,0,0,1-.18.43.69.69,0,0,1-.48.19H175.8A1.13,1.13,0,0,0,174.66,10V35.7a.64.64,0,0,1-.16.43.59.59,0,0,1-.45.19H168.4A.59.59,0,0,1,168,36.13Z"/><path class="cls-6" d="M192.66,36.06a.82.82,0,0,1-.27-.6V4a.85.85,0,0,1,.29-.64.91.91,0,0,1,.62-.26h4.93a.82.82,0,0,1,.59.26.9.9,0,0,1,.26.64V35.46a.86.86,0,0,1-.24.6.8.8,0,0,1-.61.26H193.3A.87.87,0,0,1,192.66,36.06Z"/><path class="cls-6" d="M214.32,34.47A17,17,0,0,1,206,19.72a16.7,16.7,0,0,1,2.26-8.51A17.08,17.08,0,0,1,214.32,5a16.2,16.2,0,0,1,8.42-2.3,16.6,16.6,0,0,1,6.78,1.43,16,16,0,0,1,5.59,4.07.88.88,0,0,1,.29.62,1,1,0,0,1-.33.62c-.67.53-1.33,1.09-2,1.68l-1.37,1.21a.9.9,0,0,1-.66.28.85.85,0,0,1-.62-.28,10.34,10.34,0,0,0-7.68-3.42,10.08,10.08,0,0,0-5.29,1.47,10.88,10.88,0,0,0-3.86,3.94,10.58,10.58,0,0,0-1.42,5.4,10.61,10.61,0,0,0,1.42,5.41,10.85,10.85,0,0,0,3.86,3.93,10.08,10.08,0,0,0,5.29,1.47,9.87,9.87,0,0,0,3.93-.8,10.61,10.61,0,0,0,3.42-2.33,1.62,1.62,0,0,1,1-.37,1,1,0,0,1,.76.28c.31.25.76.62,1.33,1.11s1.06.93,1.47,1.31a1.31,1.31,0,0,1,.52,1,.89.89,0,0,1-.29.66,16.64,16.64,0,0,1-20.6,3Z"/><circle class="cls-7" cx="65.14" cy="21.06" r="2.16"/><circle class="cls-4" cx="40.34" cy="22.59" r="6.23"/><circle class="cls-7" cx="37.85" cy="21.06" r="2.16"/></svg>